<?xml version="1.0" standalone="no"?><!DOCTYPE svg PUBLIC "-//W3C//DTD SVG 1.1//EN" "http://www.w3.org/Graphics/SVG/1.1/DTD/svg11.dtd"><svg class="icon" width="200px" height="200.00px" viewBox="0 0 1024 1024" version="1.1" xmlns="http://www.w3.org/2000/svg"><path fill="#333333" d="M848.1 514.09L561.24 358.31c5.11-11.74 14.42-22.27 27.18-30.35 41.64-26.38 66.5-71.52 66.5-120.78 0.01-37.63-15.01-73.38-42.29-100.65-27.27-27.29-63.02-42.31-100.65-42.31-78.81 0-142.93 64.11-142.93 142.93 0 24.71 20.04 44.75 44.75 44.75s44.75-20.04 44.75-44.75c0-29.46 23.97-53.43 53.43-53.43 13.53 0 27.14 5.86 37.37 16.08 10.37 10.36 16.07 23.64 16.07 37.37 0 18.4-9.31 35.29-24.9 45.17-38.21 24.22-63.57 61.27-71 102.2L175.68 514.11c-54.42 29.63-80.71 89.9-65.42 149.95 15.29 60.03 67.16 100.37 129.11 100.37h5.15v150.6c0 24.71 20.04 44.75 44.75 44.75h445.52c24.71 0 44.75-20.04 44.75-44.75v-150.6h5.15c61.97 0 113.84-40.34 129.09-100.37 15.24-60.1-11.13-120.36-65.68-149.97zM690.03 870.27H334.02V694.39h356.01v175.88z m136.99-228.26c-1.96 7.74-10.81 32.91-42.34 32.91h-5.15v-25.28c0-24.71-20.04-44.75-44.75-44.75H289.27c-24.71 0-44.75 20.04-44.75 44.75v25.28h-5.15c-31.54 0-40.4-25.22-42.37-32.93-1.98-7.74-6.25-34.15 21.45-49.23l293.47-159.39L805.4 592.76c27.83 15.11 23.58 41.51 21.62 49.25z"  /></svg>