<?xml version="1.0" standalone="no"?><!DOCTYPE svg PUBLIC "-//W3C//DTD SVG 1.1//EN" "http://www.w3.org/Graphics/SVG/1.1/DTD/svg11.dtd"><svg class="icon" width="200px" height="200.00px" viewBox="0 0 1024 1024" version="1.1" xmlns="http://www.w3.org/2000/svg"><path fill="#333333" d="M148 850c-16.5 0-30 13.5-30 30s13.5 30 30 30 30-13.5 30-30-13.5-30-30-30zM268 850c-16.5 0-30 13.5-30 30s13.5 30 30 30 30-13.5 30-30-13.5-30-30-30zM388 850c-16.5 0-30 13.5-30 30s13.5 30 30 30 30-13.5 30-30-13.5-30-30-30z"  /><path fill="#333333" d="M930 640h-83.3V417.5c0-20.6-13.5-37.5-30-37.5s-30 16.9-30 37.5V640H94c-51.8 0-94 42.2-94 94v196c0 51.8 42.2 94 94 94h836c51.8 0 94-42.2 94-94V734c0-51.8-42.2-94-94-94z m34 290c0 18.7-15.3 34-34 34H94c-18.7 0-34-15.3-34-34V734c0-18.7 15.3-34 34-34h836c18.7 0 34 15.3 34 34v196zM816.7 299.6c-19.2 0-37.1 5.7-52.1 15.4-18.8 12.2-18.2 40 1.2 51.2l0.5 0.3c9.6 5.6 21.5 4.9 30.8-1.1 5.6-3.7 12.3-5.8 19.5-5.8s13.9 2.1 19.5 5.8c9.3 6.1 21.2 6.7 30.8 1.1l0.5-0.3c19.4-11.2 20.1-39 1.2-51.2-14.8-9.7-32.7-15.4-51.9-15.4z"  /><path fill="#333333" d="M902.4 319c9.4 10.5 25 12.8 37.3 5.7 16.5-9.5 19.9-31.8 7.2-45.9-32.1-35.6-78.5-58.1-130.1-58.1-51.5 0-98 22.4-130 58-12.8 14.2-9.3 36.6 7.2 46.1l0.5 0.3c12.1 7 27.3 4.3 36.6-6.1 21.1-23.5 51.7-38.3 85.6-38.3s64.6 14.7 85.7 38.3z"  /><path fill="#333333" d="M624.5 284.6c13.1 7.5 29.6 4.4 38.7-7.5 35.5-45.9 91.1-75.5 153.5-75.5s118 29.6 153.5 75.5c9.2 11.8 25.7 15 38.6 7.5l0.1-0.1c15.8-9.1 19.8-30.1 8.6-44.5-6.5-8.4-13.6-16.5-21.3-24.1-48-48-111.8-74.4-179.6-74.4S685.1 168 637.1 216c-7.7 7.7-14.8 15.7-21.3 24.1-11.1 14.5-7.1 35.4 8.7 44.5z"  /></svg>