<?xml version="1.0" standalone="no"?><!DOCTYPE svg PUBLIC "-//W3C//DTD SVG 1.1//EN" "http://www.w3.org/Graphics/SVG/1.1/DTD/svg11.dtd"><svg class="icon" width="200px" height="200.00px" viewBox="0 0 1024 1024" version="1.1" xmlns="http://www.w3.org/2000/svg"><path fill="#333333" d="M963.490909 418.909091L768 244.363636V69.818182c0-39.563636-30.254545-69.818182-69.818182-69.818182H325.818182c-39.563636 0-69.818182 30.254545-69.818182 69.818182v174.545454L60.509091 418.909091c-34.909091 6.981818-60.509091 34.909091-60.509091 69.818182v139.636363c0 39.563636 30.254545 69.818182 69.818182 69.818182h884.363636c39.563636 0 69.818182-30.254545 69.818182-69.818182v-139.636363c0-34.909091-25.6-62.836364-60.509091-69.818182zM302.545455 69.818182c0-13.963636 9.309091-23.272727 23.272727-23.272727h372.363636c13.963636 0 23.272727 9.309091 23.272727 23.272727v162.909091H302.545455V69.818182z m-16.29091 209.454545h451.49091l155.927272 139.636364H130.327273l155.927272-139.636364zM977.454545 628.363636c0 13.963636-9.309091 23.272727-23.272727 23.272728H69.818182c-13.963636 0-23.272727-9.309091-23.272727-23.272728v-139.636363c0-13.963636 9.309091-23.272727 23.272727-23.272728h884.363636c13.963636 0 23.272727 9.309091 23.272727 23.272728v139.636363z"  /><path fill="#333333" d="M907.636364 535.272727h-46.545455c-13.963636 0-23.272727 9.309091-23.272727 23.272728s9.309091 23.272727 23.272727 23.272727h46.545455c13.963636 0 23.272727-9.309091 23.272727-23.272727s-9.309091-23.272727-23.272727-23.272728zM768 535.272727h-46.545455c-13.963636 0-23.272727 9.309091-23.272727 23.272728s9.309091 23.272727 23.272727 23.272727h46.545455c13.963636 0 23.272727-9.309091 23.272727-23.272727s-9.309091-23.272727-23.272727-23.272728zM628.363636 535.272727h-46.545454c-13.963636 0-23.272727 9.309091-23.272727 23.272728s9.309091 23.272727 23.272727 23.272727h46.545454c13.963636 0 23.272727-9.309091 23.272728-23.272727s-9.309091-23.272727-23.272728-23.272728zM162.909091 535.272727H116.363636c-13.963636 0-23.272727 9.309091-23.272727 23.272728s9.309091 23.272727 23.272727 23.272727h46.545455c13.963636 0 23.272727-9.309091 23.272727-23.272727s-9.309091-23.272727-23.272727-23.272728zM139.636364 837.818182c-13.963636 0-23.272727 9.309091-23.272728 23.272727v139.636364c0 13.963636 9.309091 23.272727 23.272728 23.272727s23.272727-9.309091 23.272727-23.272727v-139.636364c0-13.963636-9.309091-23.272727-23.272727-23.272727zM325.818182 837.818182c-13.963636 0-23.272727 9.309091-23.272727 23.272727v139.636364c0 13.963636 9.309091 23.272727 23.272727 23.272727s23.272727-9.309091 23.272727-23.272727v-139.636364c0-13.963636-9.309091-23.272727-23.272727-23.272727zM512 837.818182c-13.963636 0-23.272727 9.309091-23.272727 23.272727v139.636364c0 13.963636 9.309091 23.272727 23.272727 23.272727s23.272727-9.309091 23.272727-23.272727v-139.636364c0-13.963636-9.309091-23.272727-23.272727-23.272727zM698.181818 837.818182c-13.963636 0-23.272727 9.309091-23.272727 23.272727v139.636364c0 13.963636 9.309091 23.272727 23.272727 23.272727s23.272727-9.309091 23.272727-23.272727v-139.636364c0-13.963636-9.309091-23.272727-23.272727-23.272727zM884.363636 837.818182c-13.963636 0-23.272727 9.309091-23.272727 23.272727v139.636364c0 13.963636 9.309091 23.272727 23.272727 23.272727s23.272727-9.309091 23.272728-23.272727v-139.636364c0-13.963636-9.309091-23.272727-23.272728-23.272727z"  /></svg>