<?xml version="1.0" standalone="no"?><!DOCTYPE svg PUBLIC "-//W3C//DTD SVG 1.1//EN" "http://www.w3.org/Graphics/SVG/1.1/DTD/svg11.dtd"><svg class="icon" width="200px" height="200.00px" viewBox="0 0 1024 1024" version="1.1" xmlns="http://www.w3.org/2000/svg"><path fill="#333333" d="M832.170667 904.192h-648.533334c-23.893333 0-43.690667-19.456-43.690666-43.690667V147.797333c0-23.893333 19.456-43.690667 43.690666-43.690666h648.533334c23.893333 0 43.690667 19.456 43.690666 43.690666v713.045334c-0.341333 23.893333-19.797333 43.349333-43.690666 43.349333zM183.296 121.173333c-14.677333 0-26.624 11.946667-26.624 26.624v713.045334c0 14.677333 11.946667 26.624 26.624 26.624h648.533333c14.677333 0 26.624-11.946667 26.624-26.624V147.797333c0-14.677333-11.946667-26.624-26.624-26.624h-648.533333z"  /><path fill="#333333" d="M507.904 904.192c-4.778667 0-8.533333-3.754667-8.533333-8.533333V112.64c0-4.778667 3.754667-8.533333 8.533333-8.533333s8.533333 3.754667 8.533333 8.533333v783.018667c0 4.778667-4.096 8.533333-8.533333 8.533333zM218.794667 980.992c-2.048 0-4.096-0.682667-5.802667-2.389333-3.413333-3.413333-3.413333-8.533333-0.341333-11.946667L286.72 889.514667c3.413333-3.413333 8.533333-3.413333 11.946667-0.341334s3.413333 8.533333 0.341333 11.946667l-74.069333 76.8c-1.706667 2.048-3.754667 3.072-6.144 3.072zM827.392 980.992c-2.730667 0-5.12-1.024-6.826667-3.413333l-57.002666-76.8c-2.730667-3.754667-2.048-9.216 1.706666-11.946667 3.754667-2.730667 9.216-2.048 11.946667 1.706667l57.002667 76.8c2.730667 3.754667 2.048 9.216-1.706667 11.946666-1.706667 1.024-3.413333 1.706667-5.12 1.706667zM428.714667 584.362667h-2.048c-15.701333 0-28.672-12.970667-28.672-28.672v-74.752c0-15.701333 12.970667-28.672 28.672-28.672h2.048c15.701333 0 28.672 12.970667 28.672 28.672v74.752c0.341333 15.701333-12.629333 28.672-28.672 28.672z m-2.048-115.370667c-6.485333 0-11.605333 5.12-11.605334 11.605333v74.752c0 6.485333 5.12 11.605333 11.605334 11.605334h2.048c6.485333 0 11.605333-5.12 11.605333-11.605334v-74.752c0-6.485333-5.12-11.605333-11.605333-11.605333h-2.048zM582.314667 584.362667h-2.048c-15.701333 0-28.672-12.970667-28.672-28.672v-74.752c0-15.701333 12.970667-28.672 28.672-28.672h2.048c16.042667 0 28.672 12.970667 28.672 28.672v74.752c0.341333 15.701333-12.629333 28.672-28.672 28.672z m-2.048-115.370667c-6.485333 0-11.605333 5.12-11.605334 11.605333v74.752c0 6.485333 5.12 11.605333 11.605334 11.605334h2.048c6.485333 0 11.605333-5.12 11.605333-11.605334v-74.752c0-6.485333-5.12-11.605333-11.605333-11.605333h-2.048z"  /></svg>