<?xml version="1.0" standalone="no"?><!DOCTYPE svg PUBLIC "-//W3C//DTD SVG 1.1//EN" "http://www.w3.org/Graphics/SVG/1.1/DTD/svg11.dtd"><svg t="1668159019842" class="icon" viewBox="0 0 1024 1024" version="1.1" xmlns="http://www.w3.org/2000/svg" p-id="9283" xmlns:xlink="http://www.w3.org/1999/xlink" width="200" height="200"><path d="M919.9 221.6H104.1c-5.5 0-10 4.5-10 10v492c0 5.5 4.5 10 10 10H502V780H290.1c-5.5 0-10 4.5-10 10s4.5 10 10 10h443.8c5.5 0 10-4.5 10-10s-4.5-10-10-10H522v-46.4h397.9c5.5 0 10-4.5 10-10v-492c0-5.5-4.5-10-10-10z m-10 492H114.1v-472h795.8v472z" fill="" p-id="9284"></path><path d="M144.1 697.3h735.8c5.5 0 10-4.5 10-10V267.8c0-5.5-4.5-10-10-10H144.1c-5.5 0-10 4.5-10 10v419.5c0 5.6 4.5 10 10 10z m10-419.5h715.8v399.5H154.1V277.8z" fill="" p-id="9285"></path><path d="M647.4 419.2c-4.3-3.5-10.6-2.8-14.1 1.5l-71.7 88.8-40.6-86.8c0-0.1-0.1-0.1-0.1-0.2-0.1-0.2-0.2-0.4-0.3-0.5-0.1-0.1-0.2-0.3-0.2-0.4-0.1-0.1-0.2-0.3-0.3-0.4-0.1-0.1-0.2-0.3-0.3-0.4l-0.3-0.3-0.4-0.4-0.3-0.3-0.4-0.4c-0.1-0.1-0.2-0.2-0.3-0.2-0.1-0.1-0.3-0.2-0.4-0.3-0.1-0.1-0.2-0.2-0.4-0.2-0.1-0.1-0.3-0.2-0.4-0.3-0.1-0.1-0.3-0.2-0.4-0.2-0.1-0.1-0.3-0.1-0.4-0.2-0.2-0.1-0.3-0.1-0.5-0.2-0.1-0.1-0.3-0.1-0.4-0.1-0.2-0.1-0.3-0.1-0.5-0.2-0.2 0-0.3-0.1-0.5-0.1s-0.3-0.1-0.5-0.1-0.4-0.1-0.5-0.1H382.9c-5.5 0-10 4.5-10 10s4.5 10 10 10h52.7l-15.2 89.6c-0.9 5.4 2.7 10.6 8.2 11.5 0.6 0.1 1.1 0.1 1.7 0.1 4.8 0 9-3.5 9.8-8.3l15.7-92.9h49.7l44.8 95.5c1.5 3.1 4.4 5.3 7.9 5.7 0.4 0 0.8 0.1 1.2 0.1 3 0 5.9-1.4 7.8-3.7L649 433.5c3.4-4.6 2.7-10.9-1.6-14.3zM354.3 303.1l-178 120.5a9.99 9.99 0 0 0-2.7 13.9c1.9 2.9 5.1 4.4 8.3 4.4 1.9 0 3.9-0.6 5.6-1.7l178-120.5c4.6-3.1 5.8-9.3 2.7-13.9a9.99 9.99 0 0 0-13.9-2.7zM227.8 354.1c1.9 0 3.9-0.6 5.6-1.7l48.3-32.7c4.6-3.1 5.8-9.3 2.7-13.9a9.99 9.99 0 0 0-13.9-2.7l-48.3 32.7a9.99 9.99 0 0 0-2.7 13.9c2 2.9 5.1 4.4 8.3 4.4z" fill="" p-id="9286"></path></svg>