<?xml version="1.0" standalone="no"?><!DOCTYPE svg PUBLIC "-//W3C//DTD SVG 1.1//EN" "http://www.w3.org/Graphics/SVG/1.1/DTD/svg11.dtd"><svg t="1668158172506" class="icon" viewBox="0 0 1024 1024" version="1.1" xmlns="http://www.w3.org/2000/svg" p-id="7008" xmlns:xlink="http://www.w3.org/1999/xlink" width="200" height="200"><path d="M485.2 114.8c-13.3 0-104.7 12.3-169.2 12.3-56.1 0-153.9-12.3-167.2-12.3-32.8 0-4.4 51.1-4.4 97.8 0 55.2-20.7 102.2 4.4 102.2 8.9 0 129.1-9.7 175.1-9.7 46.7 0 152.4 9.7 161.3 9.7 25.1 0 4.4-47 4.4-102.2 0-46.7 28.4-97.8-4.4-97.8z m-12.9 178c-7.9 0-109.7-32.6-151.4-32.6-41.2 0-153.1 36.6-161 36.6-22.4 0 17.5-35 17.5-90.2 0-46.6-45.9-77.8-16.5-77.8 11.9 0 110.1 25.3 160.2 25.3 57.7 0 140.4-25.3 152.3-25.3 29.3 0-16.5 31.1-16.5 77.8-0.2 55.2 37.8 86.2 15.4 86.2z" fill="#00B49D" p-id="7009"></path><path d="M512.3 264.4c-2.2-15.7-4.7-33.4-4.7-51.9 0-14.6 3.3-30.7 6.3-44.9 5-24.2 9.4-45.2-2.4-59.6-4.2-5.2-12.2-11.3-26.3-11.3-4.9 0-14.4 1-33.9 2.9-34.3 3.5-91.8 9.4-135.3 9.4-36.8 0-92.7-5.5-129.6-9.1-21.8-2.1-32.6-3.2-37.6-3.2-14.1 0-22.1 6.2-26.3 11.3-11.7 14.4-7.4 35.4-2.4 59.6 2.9 14.2 6.3 30.3 6.3 44.9 0 18.5-2.5 36.2-4.7 51.9-3.8 26.5-6.5 45.7 4.8 58.7 2.1 2.4 5.2 5.1 9.5 7 3.5 1.5 7.7 2.6 12.9 2.6 3.2 0 13.1-0.7 35.3-2.2 4-0.3 8.3-0.6 12.8-0.9 5.4-1.6 11.2-2.4 17.1-2.4h19c34-2.2 70.3-4.2 90.9-4.2 20.9 0 54.4 2 85.2 4.2h94c1.8-1.3 3.3-2.8 4.5-4.1 7-8.1 8.6-18.6 7.9-31.9-0.6-7.9-1.8-16.8-3.3-26.8zM456 294.7c-13-1-29-2.2-45.7-3.4-31.1-2.2-64.8-4.2-86.4-4.2-21.2 0-57.8 2-92.1 4.2-14.5 0.9-28.5 1.9-40.8 2.7-3.3 0.2-6.4 0.4-9.4 0.7-10.7 0.7-21 1.5-27.2 1.8 0.1-6.8 1.7-18.1 3-27 2.3-16 5.1-35.9 5.1-57 0-18.3-3.7-36.3-7-52.2-1.8-8.7-4.3-21-4.5-27.5 5.7 0.3 19 1.6 31.9 2.9 37.6 3.7 94.5 9.3 133.1 9.3 45.3 0 103.9-6 138.9-9.5 11.8-1.2 23-2.4 28.2-2.7-0.1 6.6-2.7 18.9-4.5 27.5-3.3 15.9-7 33.9-7 52.2 0 21.1 2.8 41 5.1 57 1 6.8 2.1 15.2 2.7 21.8 0.2 1.9 0.2 3.7 0.3 5.2-5.8-0.5-14.8-1.2-23.7-1.8z" fill="#443421" p-id="7010"></path><path d="M875.2 114.8c-13.3 0-104.7 12.3-169.2 12.3-56.1 0-153.9-12.3-167.2-12.3-32.8 0-4.4 51.1-4.4 97.8 0 55.2-20.7 102.2 4.4 102.2 8.9 0 129.1-9.7 175.1-9.7 46.7 0 152.4 9.7 161.3 9.7 25.1 0 4.4-47 4.4-102.2 0-46.7 28.4-97.8-4.4-97.8z m-11 183c-7.9 0-111.6-37.6-153.4-37.6-41.2 0-153.1 32.6-161 32.6-22.4 0 17.5-31 17.5-86.2 0-46.6-45.9-77.8-16.5-77.8 11.9 0 110.1 25.3 160.2 25.3 57.7 0 140.4-25.3 152.3-25.3 29.3 0-16.5 31.1-16.5 77.8-0.1 55.2 39.8 91.2 17.4 91.2z" fill="#00B49D" p-id="7011"></path><path d="M897.6 212.5c0-14.6 3.3-30.7 6.3-44.9 5-24.2 9.4-45.2-2.4-59.6-4.2-5.2-12.2-11.3-26.3-11.3-4.9 0-14.4 1-33.9 2.9-34.3 3.5-91.8 9.4-135.3 9.4-36.8 0-92.7-5.5-129.6-9.1-21.8-2.1-32.6-3.2-37.6-3.2-14.1 0-22.1 6.2-26.3 11.3-11.7 14.4-7.4 35.4-2.4 59.6 2.9 14.2 6.3 30.3 6.3 44.9 0 18.5-2.5 36.2-4.7 51.9-1.4 10-2.7 18.9-3.1 26.8-0.7 13.2 0.9 23.8 7.9 31.9 1.2 1.4 2.7 2.8 4.5 4.1h102c34-2.2 70.3-4.2 90.9-4.2 20.9 0 54.4 2 85.2 4.2H810c5.3 0 10.5 0.7 15.4 1.9 6.4 0.5 12.4 1 17.9 1.4 19.8 1.5 28.7 2.2 31.9 2.2 5.2 0 9.5-1 12.9-2.6 4.3-1.9 7.3-4.6 9.5-7 11.2-13 8.5-32.1 4.8-58.7-2.3-15.6-4.8-33.3-4.8-51.9z m-97.3 78.7c-31.1-2.2-64.8-4.2-86.4-4.2-21.2 0-57.8 2-92.1 4.2-18.3 1.2-35.9 2.4-50.2 3.4-10.7 0.7-21 1.5-27.2 1.8 0-1.5 0.1-3.3 0.3-5.2 0.5-6.6 1.7-14.9 2.7-21.8 2.3-16 5.1-35.9 5.1-57 0-18.3-3.7-36.3-7-52.2-1.8-8.7-4.3-21-4.5-27.5 5.7 0.3 19 1.6 31.9 2.9 37.6 3.7 94.5 9.3 133.1 9.3 45.3 0 103.9-6 138.9-9.5 11.8-1.2 23-2.4 28.2-2.7-0.1 6.6-2.7 18.9-4.5 27.5-3.3 15.9-7 33.9-7 52.2 0 21.1 2.8 41 5.1 57 1.2 8.8 2.8 20.1 3 26.9-5.7-0.4-14.8-1.1-23.6-1.8-4.7-0.4-9.8-0.8-15.1-1.2-9.6-0.5-20-1.3-30.7-2.1z" fill="#443421" p-id="7012"></path><path d="M800 309.2h-8c38.5 0 70 31.5 70 70l-10 390c0 38.5-31.5 70-70 70H242c-38.5 0-70-31.5-70-70l-10-390c0-38.5 31.5-70 70-70h-8c-49.5 0-90 40.5-90 90v420c0 49.5 40.5 90 90 90h576c49.5 0 90-40.5 90-90v-420c0-49.4-40.5-90-90-90z" fill="#00B49D" p-id="7013"></path><path d="M888.1 330.2c-13.9-18.3-34-31.6-57.2-36.7-6.7-1.5-13.7-2.2-20.9-2.2H214c-7.9 0-15.6 0.9-23 2.7-22.3 5.4-41.7 18.4-55.1 36.2-12.5 16.4-19.9 36.9-19.9 59.1v440c0 54 44 98 98 98h596c54 0 98-44 98-98v-440c0-22.2-7.4-42.7-19.9-59.1z m-16.1 499c0 34.2-27.8 62-62 62H214c-34.2 0-62-27.8-62-62v-440c0-28.2 19-52.2 44.9-59.6 5.4-1.6 11.2-2.4 17.1-2.4h596c5.3 0 10.5 0.7 15.4 1.9 26.8 6.9 46.6 31.2 46.6 60.1v440z" fill="#443421" p-id="7014"></path></svg>