<?xml version="1.0" standalone="no"?><!DOCTYPE svg PUBLIC "-//W3C//DTD SVG 1.1//EN" "http://www.w3.org/Graphics/SVG/1.1/DTD/svg11.dtd"><svg class="icon" width="200px" height="200.00px" viewBox="0 0 1024 1024" version="1.1" xmlns="http://www.w3.org/2000/svg"><path fill="#333333" d="M430.441614 867.931839c-85.74278 0-155.50565-69.75139-155.50565-155.505651s69.72843-155.50565 155.50565-155.50565a156.228879 156.228879 0 0 1 100.804305 37.12574h421.309417a36.735426 36.735426 0 0 1 36.735426 36.735426v160.832287a36.735426 36.735426 0 0 1-36.735426 36.735426H534.081435a155.723767 155.723767 0 0 1-103.639821 39.582422z m0-237.540449a82.034798 82.034798 0 1 0 61.164485 136.713184 36.735426 36.735426 0 0 1 27.367892-12.226009h396.857399v-87.361435h-399.153363a36.735426 36.735426 0 0 1-26.679103-11.479821 81.242691 81.242691 0 0 0-59.55731-25.645919z"  /><path fill="#333333" d="M726.001076 1024H151.103139A116.49722 116.49722 0 0 1 34.709238 907.640538V116.359462A116.49722 116.49722 0 0 1 151.103139 0h574.897937a116.49722 116.49722 0 0 1 116.370942 116.359462v514.422242h-73.470852V116.359462A42.934529 42.934529 0 0 0 726.001076 73.470852H151.103139a42.934529 42.934529 0 0 0-42.923049 42.88861v791.281076A42.934529 42.934529 0 0 0 151.103139 950.529148h574.897937a42.934529 42.934529 0 0 0 42.90009-42.88861V791.613991h73.470852v116.026547A116.49722 116.49722 0 0 1 726.001076 1024z"  /><path fill="#333333" d="M531.372197 476.286278H347.752466a73.551211 73.551211 0 0 1-73.470852-73.470852V217.864036a73.551211 73.551211 0 0 1 73.470852-73.470852h183.67713a73.551211 73.551211 0 0 1 73.470852 73.470852v184.95139a73.551211 73.551211 0 0 1-73.528251 73.470852zM347.752466 217.864036v184.95139h183.67713V217.864036z"  /></svg>