<?xml version="1.0" standalone="no"?><!DOCTYPE svg PUBLIC "-//W3C//DTD SVG 1.1//EN" "http://www.w3.org/Graphics/SVG/1.1/DTD/svg11.dtd"><svg class="icon" width="200px" height="200.00px" viewBox="0 0 1024 1024" version="1.1" xmlns="http://www.w3.org/2000/svg"><path fill="#333333" d="M539.660419 309.345094h-75.642778v-21.82727h75.642778v21.82727z m-71.879456-3.763323h68.116134v-14.300624h-68.116134v14.300624zM539.660419 560.735024h-75.642778v-21.827269h75.642778v21.827269z m-71.879456-3.763322h68.116134v-14.300625h-68.116134v14.300625zM539.660419 780.136714h-75.642778v-21.827269h75.642778v21.827269z m-71.879456-3.763322h68.116134v-14.300625h-68.116134v14.300625z"  /><path fill="#333333" d="M871.209114 415.470783H153.54355v-255.905917h718.041897v255.905917z m-702.612275-15.053289h687.935318v-225.799339H168.596839v225.799339z"  /><path fill="#333333" d="M871.209114 655.947078H153.54355v-255.905917h718.041897v255.905917z m-702.612275-15.053289h687.935318v-225.799338H168.596839v225.799338z"  /><path fill="#333333" d="M871.209114 896.799706H153.54355v-255.905917h718.041897v255.905917z m-702.612275-15.053289h687.935318v-225.799339H168.596839v225.799339zM961.905182 151.661889h-899.434032v-20.698273h899.434032v20.698273z m-891.531055-7.526645h884.380743v-5.644983h-884.380743v5.644983z"  /></svg>