<?xml version="1.0" standalone="no"?><!DOCTYPE svg PUBLIC "-//W3C//DTD SVG 1.1//EN" "http://www.w3.org/Graphics/SVG/1.1/DTD/svg11.dtd"><svg class="icon" width="200px" height="200.00px" viewBox="0 0 1024 1024" version="1.1" xmlns="http://www.w3.org/2000/svg"><path fill="#333333" d="M256 64h512a85.333333 85.333333 0 0 1 85.333333 85.333333v725.333334a85.333333 85.333333 0 0 1-85.333333 85.333333H256a85.333333 85.333333 0 0 1-85.333333-85.333333V149.333333a85.333333 85.333333 0 0 1 85.333333-85.333333z m0 42.666667a42.666667 42.666667 0 0 0-42.666667 42.666666v725.333334a42.666667 42.666667 0 0 0 42.666667 42.666666h512a42.666667 42.666667 0 0 0 42.666667-42.666666V149.333333a42.666667 42.666667 0 0 0-42.666667-42.666666H256z m-42.666667 362.666666h597.333334v42.666667H213.333333v-42.666667z m106.666667-213.333333a21.333333 21.333333 0 0 1 21.333333 21.333333v85.333334a21.333333 21.333333 0 0 1-42.666666 0v-85.333334a21.333333 21.333333 0 0 1 21.333333-21.333333z m0 341.333333a21.333333 21.333333 0 0 1 21.333333 21.333334v85.333333a21.333333 21.333333 0 0 1-42.666666 0v-85.333333a21.333333 21.333333 0 0 1 21.333333-21.333334z"  /></svg>