<?xml version="1.0" standalone="no"?><!DOCTYPE svg PUBLIC "-//W3C//DTD SVG 1.1//EN" "http://www.w3.org/Graphics/SVG/1.1/DTD/svg11.dtd"><svg class="icon" width="200px" height="200.00px" viewBox="0 0 1024 1024" version="1.1" xmlns="http://www.w3.org/2000/svg"><path fill="#333333" d="M912.304593 545.311687c-3.290953-44.903699-11.742439-89.558735-24.488741-129.192408-19.523659-60.776202-48.670489-118.789477-82.055854-163.444513-9.149381-12.1886-26.776853-14.978133-39.467897-6.219655-12.69002 8.702196-15.591093 25.631774-6.497994 37.820374 29.92659 39.996946 56.17337 92.487438 73.996295 147.824767 11.463076 35.701107 19.105127 76.143191 22.090111 117.004831 10.876722 148.856259-52.966329 270.463921-176.413895 339.438852-20.222577-159.511947-149.163251-211.556277-155.104567-213.899648-7.92039-3.067872-16.902972-2.565429-24.3772 1.451048-112.26283 59.799968-144.952346 160.123884-154.434302 216.270649-111.091144-56.06183-178.61605-161.603585-178.61605-283.265482 0-81.945337 42.533722-157.866471 130.030495-232.05617 11.629875-9.873882 23.483854-19.579941 35.337833-29.287023 64.261583-52.603055 130.754996-106.963127 164.251901-189.716876 3.654226-8.925277 6.834662-17.014512 9.511631-24.321942 59.185984 39.940664 187.290617 147.769508 228.876758 354.054735 2.956332 14.7264 17.850553 24.320918 33.108049 21.476127 15.33936-2.817162 25.38004-17.042141 22.397103-31.740912C732.991672 192.401008 526.482341 79.831186 502.998487 67.838038c-0.781806-0.447185-1.616824-0.809435-2.454912-1.226944-14.000875-6.387477-30.735002-0.809435-37.597293 12.522198-1.923816 3.765767-2.843768 7.782244-2.901073 11.770068-2.648316 10.014074-13.665231 40.97318-16.176424 47.472198-28.366048 70.035076-86.631056 117.674073-148.299581 168.129208-12.105712 9.901511-24.180725 19.830651-36.09201 29.899984C160.547021 420.330184 110.397854 512.065492 110.397854 609.100502c0 156.583245 95.472422 290.349831 249.154593 349.033371 3.347235 1.283226 6.888897 1.89721 10.402931 1.89721 5.635347 0 11.212366-1.590218 16.009625-4.742001 7.782244-5.076622 12.412704-13.583366 12.328793-22.593578-0.027629-5.52176 0.418532-131.645273 116.503411-202.044646 30.652114 16.902972 110.786199 73.216535 110.786199 201.042829 0 9.231245 4.880147 17.84953 12.94073 22.814612 8.087189 4.993734 18.240433 5.744841 26.997887 1.896186C833.512063 883.356796 925.77642 729.648019 912.304593 545.311687M471.703737 113.022123c-1.226944-0.837064-2.343371-1.757017-3.319605-2.733251C469.417671 111.292736 470.505445 112.213711 471.703737 113.022123"  /></svg>