<?xml version="1.0" standalone="no"?><!DOCTYPE svg PUBLIC "-//W3C//DTD SVG 1.1//EN" "http://www.w3.org/Graphics/SVG/1.1/DTD/svg11.dtd"><svg class="icon" width="200px" height="200.00px" viewBox="0 0 1024 1024" version="1.1" xmlns="http://www.w3.org/2000/svg"><path fill="#333333" d="M841 688.2H199c-17.6 0-32-14.4-32-32v-94c0-66.2 53.8-120 120-120h466c66.2 0 120 53.8 120 120v94c0 17.7-14.3 32-32 32z m-634-40h626v-86c0-44.1-35.9-80-80-80H287c-44.1 0-80 35.9-80 80v86zM187 959.2c-11 0-20-9-20-20v-283c0-11 9-20 20-20s20 9 20 20v283c0 11.1-8.9 20-20 20zM853 959.2c-11 0-20-9-20-20v-283c0-11 9-20 20-20s20 9 20 20v283c0 11.1-8.9 20-20 20zM305 854.2c-11 0-20-9-20-20v-166c0-11 9-20 20-20s20 9 20 20v166c0 11.1-8.9 20-20 20zM760 854.2c-11 0-20-9-20-20v-166c0-11 9-20 20-20s20 9 20 20v166c0 11.1-8.9 20-20 20zM800.5 485.2c-11 0-20-9-20-20v-359h-521v359c0 11-9 20-20 20s-20-9-20-20V102.8c0-20.5 14.1-36.6 32.1-36.6h536.7c18 0 32.1 16.1 32.1 36.6v362.4c0.1 11.1-8.8 20-19.9 20z" /></svg>