<?xml version="1.0" standalone="no"?><!DOCTYPE svg PUBLIC "-//W3C//DTD SVG 1.1//EN" "http://www.w3.org/Graphics/SVG/1.1/DTD/svg11.dtd"><svg class="icon" width="200px" height="200.00px" viewBox="0 0 1024 1024" version="1.1" xmlns="http://www.w3.org/2000/svg"><path fill="#333333" d="M581 578.3c-11 0-20-9-20-20v-63c0-11 9-20 20-20s20 9 20 20v63c0 11-8.9 20-20 20zM906 959.1c-11 0-20-9-20-20v-111c0-11 9-20 20-20s20 9 20 20v111c0 11-8.9 20-20 20zM809 913.3c-11 0-20-9-20-20V839c0-11 9-20 20-20s20 9 20 20v54.3c0 11.1-8.9 20-20 20zM230 913.3c-11 0-20-9-20-20V839c0-11 9-20 20-20s20 9 20 20v54.3c0 11.1-8.9 20-20 20zM118 959.1c-11 0-20-9-20-20v-111c0-11 9-20 20-20s20 9 20 20v111c0 11-8.9 20-20 20zM903 237.1H120c-6.8 0-13.1-3.4-16.8-9.1-3.7-5.7-4.2-12.9-1.4-19.1l61.3-136c3.2-7.2 10.4-11.8 18.2-11.8h660.4c7.9 0 15 4.6 18.2 11.8l61.3 136c2.8 6.2 2.2 13.4-1.4 19.1-3.7 5.6-10 9.1-16.8 9.1z m-752-40h721.1l-43.3-96H194.2l-43.2 96zM906 852H117c-11 0-20-9-20-20V221.6c0-11 9-20 20-20h789c11 0 20 9 20 20V832c0 11-8.9 20-20 20z m-769-40h749V241.6H137V812zM501 837.3c-11 0-20-9-20-20v-581c0-11 9-20 20-20s20 9 20 20v581c0 11-8.9 20-20 20zM493 546.8H120c-11 0-20-9-20-20s9-20 20-20h373c11 0 20 9 20 20s-8.9 20-20 20z" /></svg>