<?xml version="1.0" standalone="no"?><!DOCTYPE svg PUBLIC "-//W3C//DTD SVG 1.1//EN" "http://www.w3.org/Graphics/SVG/1.1/DTD/svg11.dtd"><svg class="icon" width="200px" height="200.00px" viewBox="0 0 1024 1024" version="1.1" xmlns="http://www.w3.org/2000/svg"><path fill="#333333" d="M564.392378 401.072689m-27.460832 0a27.460833 27.460833 0 1 0 54.921665 0 27.460833 27.460833 0 1 0-54.921665 0Z"  /><path fill="#333333" d="M660.505293 401.072689m-27.460833 0a27.460833 27.460833 0 1 0 54.921666 0 27.460833 27.460833 0 1 0-54.921666 0Z"  /><path fill="#333333" d="M756.618207 401.072689m-27.460832 0a27.460833 27.460833 0 1 0 54.921665 0 27.460833 27.460833 0 1 0-54.921665 0Z"  /><path fill="#333333" d="M813.707833 171.268878H548.494001c-13.730416 0-25.292872 11.562456-25.292872 25.292872s11.562456 25.292872 25.292872 25.292872h265.213832c15.175723 0 27.460833 12.285109 27.460833 27.460833v583.181369c0 15.175723-12.285109 27.460833-27.460833 27.460833H210.292167c-15.175723 0-27.460833-12.285109-27.460833-27.460833V249.315455c0-8.671842 4.335921-16.62103 11.562456-22.402258 11.562456-7.949188 13.730416-23.847565 5.058574-35.410021-7.949188-11.562456-23.847565-13.730416-35.410021-5.058575-20.234298 14.45307-31.796754 38.300635-31.796754 62.870854v583.181369c0 43.35921 35.410021 78.046577 78.046578 78.046578h603.415666c43.35921 0 78.046577-35.410021 78.046578-78.046578V249.315455c0-43.35921-34.687368-78.046577-78.046578-78.046577z"  /><path fill="#333333" d="M351.209598 112.733945c-66.484121 0-111.288638 38.300635-111.288638 95.390261v523.201129c0 57.089626 44.804517 95.390261 111.288638 95.390261h13.730416c66.484121 0 111.288638-38.300635 111.288638-95.390261V208.124206c0-57.089626-44.804517-95.390261-111.288638-95.390261h-13.730416z m74.43331 95.390261v523.201129c0 40.468596-41.913903 44.804517-60.702894 44.804517h-13.730416c-18.066337 0-60.702893-4.335921-60.702894-44.804517V208.124206c0-40.468596 41.913903-44.804517 60.702894-44.804517h13.730416c18.066337 0 60.702893 4.335921 60.702894 44.804517z"  /></svg>