<?xml version="1.0" standalone="no"?><!DOCTYPE svg PUBLIC "-//W3C//DTD SVG 1.1//EN" "http://www.w3.org/Graphics/SVG/1.1/DTD/svg11.dtd"><svg class="icon" width="200px" height="200.00px" viewBox="0 0 1024 1024" version="1.1" xmlns="http://www.w3.org/2000/svg"><path fill="#333333" d="M896 0a51.2 51.2 0 0 1 51.2 51.2v921.6a51.2 51.2 0 0 1-47.36 51.072L896 1024H128a51.2 51.2 0 0 1-51.2-51.2V51.2a51.2 51.2 0 0 1 51.2-51.2h768z m-25.6 793.6H153.6a25.6 25.6 0 0 0-25.6 25.6v128a25.6 25.6 0 0 0 25.6 25.6h716.8a25.6 25.6 0 0 0 25.6-25.6v-128a25.6 25.6 0 0 0-25.6-25.6z m-537.6 76.8a25.6 25.6 0 1 1 0 51.2H204.8a25.6 25.6 0 1 1 0-51.2h128z m128 0a25.6 25.6 0 1 1 0 51.2h-25.6a25.6 25.6 0 1 1 0-51.2h25.6zM896 51.2H128v691.2h768V51.2zM512 102.4c169.6512 0 307.2 137.5488 307.2 307.2s-137.5488 307.2-307.2 307.2S204.8 579.2512 204.8 409.6 342.3488 102.4 512 102.4z m0 51.2C370.6112 153.6 256 268.2112 256 409.6s114.6112 256 256 256 256-114.6112 256-256S653.3888 153.6 512 153.6z m0 76.8a179.2 179.2 0 1 1 0 358.4 179.2 179.2 0 0 1 0-358.4z m0 51.2a128 128 0 1 0 0 256 128 128 0 0 0 0-256z"  /></svg>