<?xml version="1.0" standalone="no"?><!DOCTYPE svg PUBLIC "-//W3C//DTD SVG 1.1//EN" "http://www.w3.org/Graphics/SVG/1.1/DTD/svg11.dtd"><svg class="icon" width="200px" height="200.00px" viewBox="0 0 1024 1024" version="1.1" xmlns="http://www.w3.org/2000/svg"><path d="M578.33 412.79c-38.34 0-72.28-20.91-84.47-52a3 3 0 0 1 0.31-2.78 3 3 0 0 1 2.48-1.31H660a3 3 0 0 1 2.79 4.09c-12.18 31.09-46.13 52-84.46 52z" fill="#DCDEDD" /><path d="M660 359.66c-11.41 29.13-43.67 50.13-81.68 50.13s-70.27-21-81.68-50.13H660m0-6H496.65a6 6 0 0 0-5.59 8.19c12.64 32.26 47.71 53.94 87.27 53.94s74.48-21.59 87.18-53.79a5.9 5.9 0 0 0 0.5-2.38 6 6 0 0 0-6-6z m0 12z" fill="#080A1C" /><path d="M219 766.41a11.6 11.6 0 0 1-11.58-10.95l-2.06-36.71a6 6 0 0 1 6-6.34h19.14a6 6 0 0 1 6 6.34l-2.05 36.71a11.62 11.62 0 0 1-11.59 10.95z" fill="#3F454A" /><path d="M230.5 718.41l-2.05 36.71a5.61 5.61 0 0 1-5.6 5.29H219a5.6 5.6 0 0 1-5.59-5.29l-2.06-36.71h19.15m0-12h-19.12a12 12 0 0 0-12 12.67l2.06 36.71A17.61 17.61 0 0 0 219 772.41h3.82a17.61 17.61 0 0 0 17.58-16.62l2-36.71a12 12 0 0 0-12-12.67z m0 24z" fill="#080A1C" /><path d="M228.79 718.41l-2 35.21a5.6 5.6 0 0 1-5.6 5.29h-3.81a5.65 5.65 0 0 1-2.93-0.83 5.6 5.6 0 0 0 4.55 2.33h3.82a5.61 5.61 0 0 0 5.6-5.29l2.05-36.71z" fill="#565D5D" /><path d="M816 766.41a11.6 11.6 0 0 1-11.58-10.95l-2.06-36.71a6 6 0 0 1 6-6.34h19.14a6 6 0 0 1 6 6.34l-2 36.71a11.62 11.62 0 0 1-11.59 10.95z" fill="#3F454A" /><path d="M827.5 718.41l-2 36.71a5.61 5.61 0 0 1-5.6 5.29H816a5.6 5.6 0 0 1-5.59-5.29l-2.06-36.71h19.15m0-12h-19.12a12 12 0 0 0-12 12.67l2.06 36.71A17.61 17.61 0 0 0 816 772.41h3.82a17.61 17.61 0 0 0 17.58-16.62l2.05-36.71a12 12 0 0 0-12-12.67z m0 24z" fill="#080A1C" /><path d="M812.19 755.12l-2.06-36.71h-1.75l2.06 36.71a5.6 5.6 0 0 0 5.59 5.29h1.75a5.6 5.6 0 0 1-5.59-5.29z" fill="#565D5D" /><path d="M111.49 432.03l802 0 0 291.89-802 0 0-291.89Z" fill="#F5F8F7" /><path d="M897.49 438a10 10 0 0 1 10 10v259.9a10 10 0 0 1-10 10h-770a10 10 0 0 1-10-10V448a10 10 0 0 1 10-10h770m0-12h-770a22 22 0 0 0-22 22v259.9a22 22 0 0 0 22 22h770a22 22 0 0 0 22-22V448a22 22 0 0 0-22-22z" fill="#080A1C" /><path d="M511.49 449.99h2v267.94h-2z" fill="#DCDEDD" /><path d="M92.39 414.91l840.2 0 0 29.13-840.2 0 0-29.13Z" fill="#F5F8F7" /><path d="M923.4 420.91a3.18 3.18 0 0 1 3.19 3.18v10.75a3.19 3.19 0 0 1-3.19 3.16H101.58a3.19 3.19 0 0 1-3.19-3.19v-10.72a3.18 3.18 0 0 1 3.19-3.18H923.4m0-12H101.58a15.2 15.2 0 0 0-15.19 15.18v10.75A15.2 15.2 0 0 0 101.58 450H923.4a15.21 15.21 0 0 0 15.19-15.19v-10.72a15.21 15.21 0 0 0-15.19-15.18z" fill="#080A1C" /><path d="M897.49 716.66h-770a10 10 0 0 1-10-10v1.75a10 10 0 0 0 10 10h770a10 10 0 0 0 10-10v-1.75a10 10 0 0 1-10 10zM907.49 526.51v2h-790v-2zM907.49 678.53v2h-790v-2zM907.49 688.6v2h-790v-2z" fill="#DCDEDD" /><path d="M822.32 536.91H200.58a7.88 7.88 0 0 1-5.41-2.15l-6.09-5.71a2.13 2.13 0 0 1 0-3.08l6.09-5.72a7.92 7.92 0 0 1 5.41-2.14h621.74a7.94 7.94 0 0 1 5.41 2.14l6.08 5.72a2.11 2.11 0 0 1 0 3.08l-6.08 5.71a7.9 7.9 0 0 1-5.41 2.15z" fill="#3F454A" /><path d="M833.81 526.3l-6.08 5.7a7.9 7.9 0 0 1-5.41 2.15H200.58a7.88 7.88 0 0 1-5.41-2.15l-6.09-5.71c-0.05 0-0.09-0.11-0.14-0.17a2.12 2.12 0 0 0 0.14 2.92l6.09 5.71a7.88 7.88 0 0 0 5.41 2.15h621.74a7.9 7.9 0 0 0 5.41-2.15l6.08-5.71a2.12 2.12 0 0 0 0.14-2.92c-0.05 0.07-0.09 0.13-0.14 0.18z" fill="#565D5D" /><path d="M189.08 528.64l6.09-5.72a7.87 7.87 0 0 1 5.41-2.14h621.74a7.89 7.89 0 0 1 5.41 2.14l6.08 5.72a1.71 1.71 0 0 1 0.18 0.2 2.11 2.11 0 0 0-0.18-2.87l-6.08-5.72a7.94 7.94 0 0 0-5.41-2.14H200.58a7.92 7.92 0 0 0-5.41 2.14l-6.09 5.75a2.1 2.1 0 0 0-0.17 2.87 1.63 1.63 0 0 1 0.17-0.23z" fill="#080A1C" /><path d="M331.79 626.02l0 14.14-54.61 0 0-14.14 54.61 0Z" fill="#3F454A" /><path d="M324.73 639.69h-40.48a7.06 7.06 0 0 1-7.06-6.84v0.23a7.07 7.07 0 0 0 7.07 7.07h40.48a7.06 7.06 0 0 0 7.06-7.07 1.85 1.85 0 0 0 0-0.23 7.06 7.06 0 0 1-7.07 6.84z" fill="#565D5D" /><path d="M284.25 627.1h40.48a7.06 7.06 0 0 1 7 6.52v-0.54a7.06 7.06 0 0 0-7.06-7.06h-40.42a7.07 7.07 0 0 0-7.07 7.06 4.63 4.63 0 0 0 0 0.54 7.06 7.06 0 0 1 7.07-6.52z" fill="#080A1C" /><path d="M378.5 412a16.55 16.55 0 0 1-16.5-16.58v-126.2a16.55 16.55 0 0 1 16.53-16.53 5.37 5.37 0 0 0 5.36-5.37v-24.69a11.38 11.38 0 0 1 11.37-11.36h3.84a11.38 11.38 0 0 1 11.36 11.36v24.69a5.38 5.38 0 0 0 5.37 5.37 16.55 16.55 0 0 1 16.53 16.53v126.2A16.55 16.55 0 0 1 415.8 412z" fill="#F5F8F7" /><path d="M399.07 214.27a8.36 8.36 0 0 1 8.36 8.37v24.68a8.37 8.37 0 0 0 8.37 8.37 13.53 13.53 0 0 1 13.53 13.53v126.2A13.53 13.53 0 0 1 415.8 409h-37.3a13.53 13.53 0 0 1-13.5-13.58v-126.2a13.53 13.53 0 0 1 13.53-13.53 8.36 8.36 0 0 0 8.36-8.37v-24.68a8.37 8.37 0 0 1 8.37-8.37h3.84m0-6h-3.84a14.39 14.39 0 0 0-14.37 14.37v24.68a2.37 2.37 0 0 1-2.36 2.37A19.55 19.55 0 0 0 359 269.22v126.2A19.55 19.55 0 0 0 378.5 415h37.3a19.55 19.55 0 0 0 19.53-19.53V269.22a19.55 19.55 0 0 0-19.53-19.53 2.37 2.37 0 0 1-2.37-2.37v-24.68a14.38 14.38 0 0 0-14.36-14.37z" fill="#080A1C" /><path d="M377.89 202.98l38.51 0 0 14.29-38.51 0 0-14.29Z" fill="#F5F8F7" /><path d="M413.4 206v8.29h-32.51V206h32.51m0-6h-32.51a6 6 0 0 0-6 6v8.29a6 6 0 0 0 6 6h32.51a6 6 0 0 0 6-6V206a6 6 0 0 0-6-6z" fill="#080A1C" /><path d="M378.5 412a16.55 16.55 0 0 1-16.5-16.58v-89.75a3 3 0 0 1 2.46-2.95 65.24 65.24 0 0 1 12-1.14c7 0 14.23 1.16 25 4a38.7 38.7 0 0 0 9.85 1.24 53.22 53.22 0 0 0 17.1-3 3 3 0 0 1 1-0.16 3 3 0 0 1 3 3v88.8A16.55 16.55 0 0 1 415.8 412z" fill="#DCDEDD" /><path d="M376.4 304.58c7.29 0 14.62 1.37 24.24 3.9a41.29 41.29 0 0 0 10.62 1.34 56.74 56.74 0 0 0 18.07-3.2v88.8A13.53 13.53 0 0 1 415.8 409h-37.3a13.53 13.53 0 0 1-13.5-13.58v-89.75a62.87 62.87 0 0 1 11.43-1.09m0-6a68.49 68.49 0 0 0-12.51 1.19 6 6 0 0 0-4.92 5.9v89.75A19.55 19.55 0 0 0 378.5 415h37.3a19.55 19.55 0 0 0 19.53-19.53v-88.8a6 6 0 0 0-6-6 5.89 5.89 0 0 0-1.94 0.32 50.29 50.29 0 0 1-16.13 2.88 35.54 35.54 0 0 1-9.09-1.14c-11-2.91-18.51-4.1-25.77-4.1z" fill="#080A1C" /></svg>