<?xml version="1.0" standalone="no"?><!DOCTYPE svg PUBLIC "-//W3C//DTD SVG 1.1//EN" "http://www.w3.org/Graphics/SVG/1.1/DTD/svg11.dtd"><svg class="icon" width="200px" height="200.00px" viewBox="0 0 1024 1024" version="1.1" xmlns="http://www.w3.org/2000/svg"><path fill="#333333" d="M789.333333 128H234.666667c-59.733333 0-106.666667 46.933333-106.666667 106.666667v554.666666c0 59.733333 46.933333 106.666667 106.666667 106.666667h554.666666c59.733333 0 106.666667-46.933333 106.666667-106.666667V234.666667c0-59.733333-46.933333-106.666667-106.666667-106.666667z m-149.333333 405.333333h213.333333v128H640v-128z m213.333333-298.666666v256H426.666667V170.666667h362.666666c36.266667 0 64 27.733333 64 64zM170.666667 490.666667v-128h213.333333v128H170.666667z m64-320h149.333333v149.333333H170.666667v-85.333333c0-36.266667 27.733333-64 64-64zM170.666667 789.333333V533.333333h426.666666v320H234.666667c-36.266667 0-64-27.733333-64-64z m618.666666 64h-149.333333v-149.333333h213.333333v85.333333c0 36.266667-27.733333 64-64 64z"  /><path fill="#333333" d="M535.466667 659.2h-42.666667c-12.8 0-21.333333 8.533333-21.333333 21.333333s8.533333 21.333333 21.333333 21.333334h42.666667c12.8 0 21.333333-8.533333 21.333333-21.333334s-8.533333-21.333333-21.333333-21.333333zM492.8 364.8h42.666667c12.8 0 21.333333-8.533333 21.333333-21.333333s-8.533333-21.333333-21.333333-21.333334h-42.666667c-12.8 0-21.333333 8.533333-21.333333 21.333334s10.666667 21.333333 21.333333 21.333333z"  /></svg>