<?xml version="1.0" standalone="no"?><!DOCTYPE svg PUBLIC "-//W3C//DTD SVG 1.1//EN" "http://www.w3.org/Graphics/SVG/1.1/DTD/svg11.dtd"><svg t="1668158913466" class="icon" viewBox="0 0 1024 1024" version="1.1" xmlns="http://www.w3.org/2000/svg" p-id="8131" xmlns:xlink="http://www.w3.org/1999/xlink" width="200" height="200"><path d="M860.3 853h-698c-54.9 0-99.5-44.6-99.5-99.5v-312c0-54.9 44.6-99.5 99.5-99.5s99.5 44.6 99.5 99.5V654h499V441.5c0-54.9 44.6-99.5 99.5-99.5s99.5 44.6 99.5 99.5v312c0 54.8-44.6 99.5-99.5 99.5z m-698-471c-32.8 0-59.5 26.7-59.5 59.5v312c0 32.8 26.7 59.5 59.5 59.5h698c32.8 0 59.5-26.7 59.5-59.5v-312c0-32.8-26.7-59.5-59.5-59.5s-59.5 26.7-59.5 59.5V674c0 11-9 20-20 20h-539c-11 0-20-9-20-20V441.5c0-32.9-26.7-59.5-59.5-59.5z" p-id="8132"></path><path d="M750.8 692h-479c-27.6 0-50-22.4-50-50v-9.5c0-75.3 61.2-136.5 136.5-136.5h306c75.3 0 136.5 61.2 136.5 136.5v9.5c0 27.5-22.4 50-50 50zM358.3 536c-53.2 0-96.5 43.3-96.5 96.5v9.5c0 5.5 4.5 10 10 10h479c5.5 0 10-4.5 10-10v-9.5c0-53.2-43.3-96.5-96.5-96.5h-306zM864.8 385.9c-11 0-20-9-20-20v-132c0-46.6-59.5-85.9-130-85.9h-407c-70.5 0-130 39.3-130 85.9v132c0 11-9 20-20 20s-20-9-20-20v-132c0-34.9 18.7-67.2 52.5-91.1 31.8-22.4 73.5-34.8 117.5-34.8h407c44 0 85.7 12.3 117.5 34.8 33.9 23.9 52.5 56.3 52.5 91.1v132c0 11-8.9 20-20 20zM250.1 927.1c-11 0-20-9-20-20v-68.4c0-11 9-20 20-20s20 9 20 20v68.4c0 11.1-8.9 20-20 20zM772.5 927.1c-11 0-20-9-20-20v-68.4c0-11 9-20 20-20s20 9 20 20v68.4c0 11.1-8.9 20-20 20z" p-id="8133"></path></svg>