<?xml version="1.0" standalone="no"?><!DOCTYPE svg PUBLIC "-//W3C//DTD SVG 1.1//EN" "http://www.w3.org/Graphics/SVG/1.1/DTD/svg11.dtd"><svg t="1668157958090" class="icon" viewBox="0 0 1024 1024" version="1.1" xmlns="http://www.w3.org/2000/svg" p-id="5868" xmlns:xlink="http://www.w3.org/1999/xlink" width="200" height="200"><path d="M141.8 840.1a365.9 119.5 0 1 0 731.8 0 365.9 119.5 0 1 0-731.8 0Z" fill="#EBEBED" p-id="5869"></path><path d="M133.4 604.8v-168c0-45.1 36.9-82 82-82h607c45.1 0 82 36.9 82 82v168" fill="#FFFFFF" p-id="5870"></path><path d="M904.4 616c-6.2 0-11.2-5-11.2-11.2v-168c0-39.1-31.8-70.8-70.8-70.8h-607c-39.1 0-70.8 31.8-70.8 70.8v168c0 6.2-5 11.2-11.2 11.2s-11.2-5-11.2-11.2v-168c0-51.4 41.8-93.2 93.2-93.2h607c51.4 0 93.2 41.8 93.2 93.2v168c0 6.2-5 11.2-11.2 11.2z" fill="#444957" p-id="5871"></path><path d="M223.6 589.8v14.9c0-40.6 33.2-73.8 73.8-73.8h123c40.6 0 73.8 18.3 73.8 58.9M551.7 589.8c0-40.6 33.2-58.9 73.8-58.9h123c40.6 0 73.8 18.3 73.8 58.9" fill="#FFD073" p-id="5872"></path><path d="M108.7 754.6v-82c0-45.1 36.9-82 82-82H847c45.1 0 82 36.9 82 82v82" fill="#FFFFFF" p-id="5873"></path><path d="M929 765.8c-6.2 0-11.2-5-11.2-11.2v-82c0-39.1-31.8-70.8-70.8-70.8H190.8c-39.1 0-70.8 31.8-70.8 70.8v82c0 6.2-5 11.2-11.2 11.2s-11.2-5-11.2-11.2v-82c0-51.4 41.8-93.2 93.2-93.2H847c51.4 0 93.2 41.8 93.2 93.2v82c0 6.1-5 11.2-11.2 11.2z" fill="#444957" p-id="5874"></path><path d="M494.3 593.5c-6.2 0-11.2-5-11.2-11.2 0-34.5-28.1-62.6-62.6-62.6h-123c-34.5 0-62.6 28.1-62.6 62.6 0 6.2-5 11.2-11.2 11.2s-11.2-5-11.2-11.2c0-46.9 38.1-85 85-85h123c46.9 0 85 38.1 85 85 0 6.2-5 11.2-11.2 11.2zM822.4 593.5c-6.2 0-11.2-5-11.2-11.2 0-34.5-28.1-62.6-62.6-62.6h-123c-34.5 0-62.6 28.1-62.6 62.6 0 6.2-5 11.2-11.2 11.2s-11.2-5-11.2-11.2c0-46.9 38.1-85 85-85h123c46.9 0 85 38.1 85 85 0 6.2-5 11.2-11.2 11.2zM218.7 825.3c-6.2 0-11.2-5-11.2-11.2v-49.4c0-6.2 5-11.2 11.2-11.2s11.2 5 11.2 11.2v49.4c0 6.2-5 11.2-11.2 11.2zM820.1 825.3c-6.2 0-11.2-5-11.2-11.2v-49.4c0-6.2 5-11.2 11.2-11.2s11.2 5 11.2 11.2v49.4c0 6.2-5 11.2-11.2 11.2z" fill="#444957" p-id="5875"></path><path d="M929 765.8H108.7c-6.2 0-11.2-5-11.2-11.2s5-11.2 11.2-11.2H929c6.2 0 11.2 5 11.2 11.2s-5 11.2-11.2 11.2z" fill="#444957" p-id="5876"></path></svg>