<?xml version="1.0" standalone="no"?><!DOCTYPE svg PUBLIC "-//W3C//DTD SVG 1.1//EN" "http://www.w3.org/Graphics/SVG/1.1/DTD/svg11.dtd"><svg t="1668157583509" class="icon" viewBox="0 0 1024 1024" version="1.1" xmlns="http://www.w3.org/2000/svg" p-id="4820" xmlns:xlink="http://www.w3.org/1999/xlink" width="200" height="200"><path d="M807.737538 65.290005 216.261439 65.290005c-62.819744 0-113.7456 50.925856-113.7456 113.7456l0 72.380494c0 0.001023 0 0.002047 0 0.002047 0 0.001023 0 0.002047 0 0.002047l0 593.542154c0 62.819744 50.925856 113.7456 113.7456 113.7456l591.476099 0c62.819744 0 113.7456-50.925856 113.7456-113.7456L921.483138 179.035606C921.483138 116.215862 870.558305 65.290005 807.737538 65.290005zM216.261439 106.652042l591.476099 0c39.97648 0 72.383564 32.407084 72.383564 72.383564l0 51.702546L143.877875 230.738152l0-51.702546C143.877875 139.059126 176.284959 106.652042 216.261439 106.652042zM807.737538 917.346935 216.261439 917.346935c-39.97648 0-72.383564-32.407084-72.383564-72.383564L143.877875 272.100188l736.243227 0 0 572.863183C880.121102 884.939851 847.714018 917.346935 807.737538 917.346935z" p-id="4821"></path><path d="M513.010003 322.526671c-150.527318 0-272.989441 122.462123-272.989441 272.989441s122.462123 272.989441 272.989441 272.989441 272.989441-122.462123 272.989441-272.989441S663.536298 322.526671 513.010003 322.526671zM513.010003 363.888707c112.076588 0 205.808366 80.017428 227.089042 185.922457-1.706875 1.235131-3.257184 2.746554-4.568039 4.538363-0.13917 0.190335-14.198374 19.249413-38.026058 38.532595-21.305235 17.23964-54.701856 37.791721-92.807732 37.791721-37.219693 0-63.741743-19.558451-91.818195-40.263006-29.68509-21.892613-60.382229-44.529169-103.962793-44.529169-53.659107 0-99.682303 35.347043-127.166261 62.559824-0.236384-4.279467-0.367367-8.587586-0.367367-12.925381C281.382599 467.796242 385.290133 363.888707 513.010003 363.888707zM513.010003 827.142493c-105.228623 0-194.280822-70.540589-222.384903-166.813237 11.510148-14.455223 61.700247-73.086575 118.291127-73.086575 29.978778 0 52.886511 16.893762 79.413678 36.456307 30.722722 22.655999 65.544809 48.335868 116.367311 48.335868 61.900815 0 111.731734-38.068014 139.675156-65.593927C738.64595 729.10669 637.065414 827.142493 513.010003 827.142493z" p-id="4822"></path><path d="M254.497275 202.576765c17.105586 0 31.021527-13.915941 31.021527-31.021527S271.602861 140.53371 254.497275 140.53371s-31.021527 13.915941-31.021527 31.021527S237.391688 202.576765 254.497275 202.576765z" p-id="4823"></path><path d="M357.902366 202.576765c17.105586 0 31.021527-13.915941 31.021527-31.021527S375.006929 140.53371 357.902366 140.53371s-31.021527 13.915941-31.021527 31.021527S340.79678 202.576765 357.902366 202.576765z" p-id="4824"></path></svg>