<?xml version="1.0" standalone="no"?><!DOCTYPE svg PUBLIC "-//W3C//DTD SVG 1.1//EN" "http://www.w3.org/Graphics/SVG/1.1/DTD/svg11.dtd"><svg class="icon" width="200px" height="200.00px" viewBox="0 0 1024 1024" version="1.1" xmlns="http://www.w3.org/2000/svg"><path d="M818.694599 1023.958799H205.305401A33.702552 33.702552 0 0 1 171.64405 990.297448V87.75848a33.702552 33.702552 0 0 1 33.661351-33.661351h613.347997a33.702552 33.702552 0 0 1 33.661351 33.661351v902.580169a33.702552 33.702552 0 0 1-33.62015 33.62015zM205.305401 84.022907a3.735572 3.735572 0 0 0-3.735572 3.735573v902.580169a3.735572 3.735572 0 0 0 3.735572 3.735572h613.347997a3.735572 3.735572 0 0 0 3.749306-3.735572V87.75848a3.735572 3.735572 0 0 0-3.749306-3.735573z" fill="#1A1A1A" /><path d="M837.399928 928.069956H186.655007a11.22045 11.22045 0 0 1 0-22.440901h650.744921a11.22045 11.22045 0 0 1 0 22.440901z" fill="#1A1A1A" /><path d="M736.168667 928.069956H287.872534a11.22045 11.22045 0 0 1-11.151782-11.234184V642.078942a11.22045 11.22045 0 0 1 11.220451-11.22045h448.227464a11.22045 11.22045 0 0 1 11.220451 11.22045v274.75683a11.22045 11.22045 0 0 1-11.220451 11.234184zM299.092984 905.629055h425.855233V653.299392H299.092984zM584.356111 80.287335H439.712558a11.22045 11.22045 0 0 1-11.220451-11.22045V11.22045A11.22045 11.22045 0 0 1 439.712558 0h144.643553a11.22045 11.22045 0 0 1 11.22045 11.22045v57.846435a11.22045 11.22045 0 0 1-11.22045 11.22045z m-133.395636-22.440901h122.230121V22.440901h-122.230121z" fill="#1A1A1A" /><path d="M528.473599 842.275399a16.480466 16.480466 0 1 1-32.960932 0" fill="#9B9696" /><path d="M512.020601 866.213275a23.937876 23.937876 0 1 1 23.937876-23.937876 23.95161 23.95161 0 0 1-23.937876 23.937876z m0-32.960931a8.981854 8.981854 0 1 0 8.981853 8.981854 8.995588 8.995588 0 0 0-8.981853-8.940653z" fill="#1A1A1A" /><path d="M427.256072 842.275399a16.480466 16.480466 0 0 1-32.960931 0" fill="#9B9696" /><path d="M410.803074 866.213275a23.937876 23.937876 0 1 1 23.924143-23.937876 23.965344 23.965344 0 0 1-23.924143 23.937876z m0-32.960931a8.981854 8.981854 0 1 0 8.96812 8.981854 8.995588 8.995588 0 0 0-8.96812-8.940653zM427.256072 890.563163h-32.960931a5.617092 5.617092 0 0 1 0-11.22045h32.960931a5.617092 5.617092 0 0 1 0 11.22045zM528.473599 890.563163h-32.960932a5.617092 5.617092 0 0 1 0-11.22045h32.960932a5.617092 5.617092 0 1 1 0 11.22045z" fill="#1A1A1A" /><path d="M629.677392 842.275399a16.480466 16.480466 0 0 1-32.960932 0" fill="#9B9696" /><path d="M613.196926 866.213275a23.937876 23.937876 0 1 1 23.937876-23.937876 23.965344 23.965344 0 0 1-23.937876 23.937876z m0-32.960931a8.981854 8.981854 0 1 0 8.981854 8.981854 8.995588 8.995588 0 0 0-8.981854-8.940653zM629.677392 890.563163h-32.960932a5.617092 5.617092 0 0 1 0-11.22045h32.960932a5.617092 5.617092 0 1 1 0 11.22045z" fill="#1A1A1A" /><path d="M439.712558 687.880903m2.527004 0l139.562077 0q2.527005 0 2.527005 2.527005l0 91.356714q0 2.527005-2.527005 2.527005l-139.562077 0q-2.527005 0-2.527004-2.527005l0-91.356714q0-2.527005 2.527004-2.527005Z" fill="#1A1A1A" /><path d="M497.984737 687.880903l-55.085956 95.408162a6.660855 6.660855 0 0 0 3.474631 1.002562h21.973955l55.58037-96.410724zM486.846689 784.291627h59.370878l38.138544-66.072934v-23.690669a6.647121 6.647121 0 0 0-6.647121-6.647121h-35.226995z" fill="#FFFFFF" opacity=".3" /><path d="M577.48925 791.762771h-130.882364a14.379206 14.379206 0 0 1-14.365473-14.351738v-82.649536a14.379206 14.379206 0 0 1 14.365473-14.365472h130.882364a14.379206 14.379206 0 0 1 14.365473 14.365472v82.649536a14.379206 14.379206 0 0 1-14.365473 14.351738z m-130.291814-15.010957h129.660063v-81.399767h-129.660063z"  /></svg>