<?xml version="1.0" standalone="no"?><!DOCTYPE svg PUBLIC "-//W3C//DTD SVG 1.1//EN" "http://www.w3.org/Graphics/SVG/1.1/DTD/svg11.dtd"><svg t="1668157465804" class="icon" viewBox="0 0 1024 1024" version="1.1" xmlns="http://www.w3.org/2000/svg" p-id="3658" xmlns:xlink="http://www.w3.org/1999/xlink" width="200" height="200"><path d="M789.333333 752.384l78.848-45.525333a21.333333 21.333333 0 1 1 21.333334 36.949333L810.666667 789.333333l78.848 45.525334a21.333333 21.333333 0 0 1-21.333334 36.949333L789.333333 826.282667V917.333333a21.333333 21.333333 0 0 1-42.666666 0v-91.050666l-78.848 45.525333a21.333333 21.333333 0 1 1-21.333334-36.949333L725.333333 789.333333l-78.848-45.525333a21.333333 21.333333 0 0 1 21.333334-36.949333L746.666667 752.384V661.333333a21.333333 21.333333 0 0 1 42.666666 0v91.050667zM149.333333 85.333333h725.333334a85.333333 85.333333 0 0 1 85.333333 85.333334v256a85.333333 85.333333 0 0 1-85.333333 85.333333H149.333333a85.333333 85.333333 0 0 1-85.333333-85.333333V170.666667a85.333333 85.333333 0 0 1 85.333333-85.333334z m0 42.666667a42.666667 42.666667 0 0 0-42.666666 42.666667v256a42.666667 42.666667 0 0 0 42.666666 42.666666h725.333334a42.666667 42.666667 0 0 0 42.666666-42.666666V170.666667a42.666667 42.666667 0 0 0-42.666666-42.666667H149.333333z m64 234.666667h597.333334a21.333333 21.333333 0 0 1 0 42.666666H213.333333a21.333333 21.333333 0 0 1 0-42.666666zM158.933333 664.533333a21.333333 21.333333 0 0 1 12.416-40.810666c61.44 18.688 94.378667 103.36 42.304 163.264-34.304 39.445333-28.586667 90.773333 2.090667 114.56a21.333333 21.333333 0 0 1-26.133333 33.706666c-49.877333-38.613333-58.709333-118.144-8.170667-176.277333 30.357333-34.88 11.178667-84.181333-22.506667-94.442667z m298.666667 0a21.333333 21.333333 0 0 1 12.416-40.810666c61.44 18.688 94.378667 103.36 42.304 163.264-34.304 39.445333-28.586667 90.773333 2.090667 114.56a21.333333 21.333333 0 0 1-26.133334 33.706666c-49.877333-38.613333-58.709333-118.144-8.170666-176.277333 30.357333-34.88 11.178667-84.181333-22.506667-94.442667z m-149.333333 4.053334a21.333333 21.333333 0 0 1 12.416-40.832c61.44 18.709333 94.378667 103.381333 42.304 163.264-34.304 39.466667-28.586667 90.794667 2.090666 114.56a21.333333 21.333333 0 1 1-26.133333 33.728c-49.877333-38.613333-58.709333-118.144-8.170667-176.277334 30.357333-34.901333 11.178667-84.202667-22.506666-94.464z" fill="#3D3D3D" p-id="3659"></path></svg>