<?xml version="1.0" standalone="no"?><!DOCTYPE svg PUBLIC "-//W3C//DTD SVG 1.1//EN" "http://www.w3.org/Graphics/SVG/1.1/DTD/svg11.dtd"><svg class="icon" width="200px" height="200.00px" viewBox="0 0 1024 1024" version="1.1" xmlns="http://www.w3.org/2000/svg"><path fill="#333333" d="M849.3 385.3H175.5C116.2 385.3 68 338.6 68 281.2c0-11 9-20 20-20s20 9 20 20c0 35.3 30.3 64.1 67.5 64.1h673.8c37.2 0 67.5-28.7 67.5-64.1 0-11 9-20 20-20s20 9 20 20c0 57.4-48.2 104.1-107.5 104.1z"  /><path fill="#333333" d="M152.6 926.7c-11 0-20-9-20-20V367.5c0-11 9-20 20-20s20 9 20 20v539.2c0 11-9 20-20 20zM872.3 926.7c-11 0-20-9-20-20V367.5c0-11 9-20 20-20s20 9 20 20v539.2c0 11-9 20-20 20zM778 764.9c-11 0-20-9-20-20V368.8c0-11 9-20 20-20s20 9 20 20v376.1c0 11-9 20-20 20zM246.8 764.9c-11 0-20-9-20-20V368.8c0-11 9-20 20-20s20 9 20 20v376.1c0 11-8.9 20-20 20z"  /><path fill="#333333" d="M936.8 295H88c-6.8 0-13.1-3.4-16.8-9.1-3.7-5.7-4.3-12.8-1.5-19L140 108.8c3.2-7.2 10.4-11.9 18.3-11.9h708.2c7.9 0 15.1 4.7 18.3 11.9l70.3 158.1c2.8 6.2 2.2 13.3-1.5 19-3.7 5.7-10 9.1-16.8 9.1z m-818-40H906l-52.5-118.1H171.3L118.8 255z"  /></svg>