<?xml version="1.0" standalone="no"?><!DOCTYPE svg PUBLIC "-//W3C//DTD SVG 1.1//EN" "http://www.w3.org/Graphics/SVG/1.1/DTD/svg11.dtd"><svg t="1675737958074" class="icon" viewBox="0 0 1024 1024" version="1.1" xmlns="http://www.w3.org/2000/svg" p-id="4069" xmlns:xlink="http://www.w3.org/1999/xlink" width="200" height="200"><path d="M924.8 908H284v-32h640.8c8 0 15.2-4 20-11.2 4-7.2 4-15.2 0-22.4L532 128c-4-7.2-11.2-11.2-20-11.2-8 0-15.2 4-20 11.2l-320 555.2-28-16L464.8 112c9.6-16.8 27.2-27.2 47.2-27.2 20 0 37.6 10.4 47.2 27.2l412.8 714.4c9.6 16.8 9.6 37.6 0 54.4-9.6 17.6-27.2 27.2-47.2 27.2z" fill="#666666" p-id="4070"></path><path d="M517.6 737.6m-32 0a32 32 0 1 0 64 0 32 32 0 1 0-64 0Z" fill="#666666" p-id="4071"></path><path d="M517.6 672c-17.6 0-32-14.4-32-32V416c0-17.6 14.4-32 32-32s32 14.4 32 32v224c0 17.6-14.4 32-32 32z" fill="#666666" p-id="4072"></path><path d="M158.4 675.2m-16 0a16 16 0 1 0 32 0 16 16 0 1 0-32 0Z" fill="#666666" p-id="4073"></path><path d="M284 892m-16 0a16 16 0 1 0 32 0 16 16 0 1 0-32 0Z" fill="#666666" p-id="4074"></path><path d="M208 892m-16 0a16 16 0 1 0 32 0 16 16 0 1 0-32 0Z" fill="#666666" p-id="4075"></path></svg>