<?xml version="1.0" standalone="no"?><!DOCTYPE svg PUBLIC "-//W3C//DTD SVG 1.1//EN" "http://www.w3.org/Graphics/SVG/1.1/DTD/svg11.dtd"><svg t="1679035319879" class="icon" viewBox="0 0 1024 1024" version="1.1" xmlns="http://www.w3.org/2000/svg" p-id="3061" xmlns:xlink="http://www.w3.org/1999/xlink" width="200" height="200"><path d="M951.423543 491.107157l-429.971775-350.267479L91.495342 491.107157l-37.151132-40.86778 435.854762-355.046319c18.189268-14.833847 44.322461-14.833847 62.525032 0l434.141748 353.664855L951.423543 491.107157z" p-id="3062"></path><path d="M866.277304 928.923598l-689.636746 0c-19.527752 0-35.356252-15.829524-35.356252-35.356252L141.284305 406.77547c0-19.527752 15.827477-35.357276 35.356252-35.357276 19.529799 0 21.215184 1.685385 21.215184 21.214161l0 479.718783 647.208425 0L845.064166 406.77547c0-19.527752 1.670036-35.357276 21.213137-35.357276 19.514449 0 35.358299 15.8285 35.358299 35.357276l0 486.791875C901.635603 913.094074 885.7938 928.923598 866.277304 928.923598z" p-id="3063"></path><path d="M780.550851 158.394497 724.726427 158.394497c-3.687996 0-6.671956 5.870708-6.671956 13.121855l0 67.273173c0 3.949962 0.924045 7.67889 2.457981 10.178827l51.91437 83.22754c1.188058 1.905396 2.681062 2.940982 4.213975 2.940982l3.90596 0c3.689019 0 6.658653-5.881964 6.658653-13.118785L787.205411 171.515329C787.209504 164.264181 784.239869 158.394497 780.550851 158.394497z" p-id="3064"></path><path d="M645.187907 743.54861l-64.99427 0L580.193637 616.19406c0-34.169217-12.44545-51.27992-37.332257-51.27992-11.585873 0-21.201881 5.192256-28.864398 15.564487-7.667633 10.346649-11.505032 23.010063-11.505032 37.926798l0 125.144208L437.494611 743.549633 437.494611 614.564957c0-33.106002-12.305257-49.65184-36.945447-49.65184-12.237719 0-22.016433 4.958942-29.349445 14.849196-7.347339 9.902534-11.007705 22.980387-11.007705 39.248909l0 124.536364-65.189721 0L295.002292 520.329712l65.189721 0 0 34.902928 0.814552 0c7.789407-12.775978 18.161638-22.707165 31.090089-29.779234 12.897751-7.045463 26.490328-10.578939 40.769542-10.578939 31.339776 0 52.800553 14.057157 64.388473 42.178635 17.223267-28.119431 42.249243-42.178635 75.063603-42.178635 48.587602 0 72.868611 29.996175 72.868611 90.004897L645.187907 743.54861 645.187907 743.54861z" p-id="3065"></path><path d="M768.38374 585.271794l-96.499821 0 0-24.26873 42.512233-40.797172c8.947789-8.53642 15.176654-15.702634 18.739806-21.48943 3.578502-5.799076 5.346775-11.835559 5.346775-18.078751 0-14.07353-7.55507-21.11797-22.636556-21.11797-12.67774 0-24.943089 5.109368-36.790928 15.287171L679.055249 447.379237c12.69002-8.411577 27.069519-12.609179 43.186591-12.609179 14.585183 0 26.158776 3.714602 34.694173 11.146874 8.519024 7.4159 12.802584 17.691941 12.802584 30.812773 0 17.331737-10.523681 35.479049-31.531134 54.484915l-30.869055 27.800159 0 0.568958 61.046355 0L768.38374 585.271794 768.38374 585.271794z" p-id="3066"></path></svg>